<?xml version="1.0" encoding="UTF-8"?>
<svg id="Capa_1" xmlns="http://www.w3.org/2000/svg" version="1.1" viewBox="0 0 1080 1080">
  <!-- Generator: Adobe Illustrator 29.0.0, SVG Export Plug-In . SVG Version: 2.1.0 Build 186)  -->
  <defs>
    <style>
      .st0 {
        fill: #331173;
      }
    </style>
  </defs>
  <path class="st0" d="M206.03,601.08c3.44,0,6.89-1.22,9.64-3.71l123.92-111.94,123.96,111.94c5.47,4.94,13.8,4.94,19.28,0l123.97-111.95,123.99,111.95c5.48,4.94,13.8,4.94,19.28,0l133.63-120.65c5.9-5.32,6.36-14.42,1.04-20.31-5.32-5.9-14.42-6.36-20.31-1.04l-123.99,111.95-123.99-111.95c-5.48-4.94-13.8-4.94-19.28,0l-123.97,111.94-123.96-111.94c-5.48-4.94-13.8-4.94-19.28,0l-133.56,120.65c-5.89,5.32-6.36,14.42-1.03,20.31,2.84,3.14,6.75,4.74,10.68,4.74Z"/>
  <path class="st0" d="M864.41,585.81l-123.99,111.95-123.99-111.95c-5.48-4.94-13.8-4.94-19.28,0l-123.97,111.94-123.96-111.94c-5.48-4.94-13.8-4.94-19.28,0l-133.56,120.65c-5.89,5.32-6.36,14.42-1.03,20.31,2.84,3.14,6.75,4.74,10.68,4.74,3.44,0,6.89-1.22,9.64-3.71l123.92-111.94,123.96,111.94c5.47,4.94,13.8,4.94,19.28,0l123.97-111.94,123.99,111.95c5.48,4.94,13.8,4.94,19.28,0l133.63-120.65c5.9-5.32,6.36-14.42,1.04-20.31-5.32-5.9-14.42-6.36-20.31-1.04Z"/>
</svg>