<?xml version="1.0" encoding="UTF-8"?>
<svg id="Capa_1" xmlns="http://www.w3.org/2000/svg" version="1.1" viewBox="0 0 1080 1080">
  <!-- Generator: Adobe Illustrator 29.0.0, SVG Export Plug-In . SVG Version: 2.1.0 Build 186)  -->
  <defs>
    <style>
      .st0 {
        fill: #331173;
      }
    </style>
  </defs>
  <path class="st0" d="M803.91,339.33c-14.06-20.27-33.57-34.63-56.43-41.54-25.43-7.69-53.59-5.99-83.68,5.03-28.35,10.38-52.67,33.49-72.29,68.69-16.79,30.13-30.61,70-41.06,118.52-4.14,19.21-7.78,39.85-10.92,61.85-3.14-22-6.78-42.64-10.92-61.85-10.45-48.52-24.27-88.4-41.06-118.52-19.62-35.19-43.94-58.3-72.29-68.69-30.09-11.02-58.25-12.71-83.68-5.03-22.85,6.91-42.37,21.27-56.43,41.54-14.61,21.06-22.38,47.24-21.88,73.72.52,27.64,10.19,53.79,27.21,73.64,5.28,6.16,14.56,6.87,20.72,1.59,6.16-5.28,6.87-14.56,1.59-20.72-25.47-29.7-26.97-77.63-3.49-111.48,22.66-32.66,61.24-42.02,105.86-25.67,21.55,7.89,40.64,26.53,56.73,55.4,15.37,27.58,28.16,64.73,38,110.41,16.56,76.84,24.95,177.52,24.95,299.23,0,8.11,6.58,14.69,14.69,14.69s14.69-6.58,14.69-14.69c0-121.71,8.4-222.39,24.95-299.23,9.84-45.68,22.63-82.82,38-110.41,16.09-28.87,35.18-47.51,56.73-55.4,44.62-16.34,83.2-6.99,105.86,25.67,23.48,33.85,21.98,81.78-3.49,111.48-5.28,6.16-4.57,15.44,1.59,20.72,6.16,5.28,15.44,4.57,20.72-1.59,17.02-19.85,26.68-46,27.21-73.64.5-26.48-7.27-52.66-21.88-73.72Z"/>
</svg>