<?xml version="1.0" encoding="UTF-8"?>
<svg id="Capa_1" xmlns="http://www.w3.org/2000/svg" version="1.1" viewBox="0 0 1080 1080">
  <!-- Generator: Adobe Illustrator 29.0.0, SVG Export Plug-In . SVG Version: 2.1.0 Build 186)  -->
  <defs>
    <style>
      .st0 {
        fill: #331173;
      }
    </style>
  </defs>
  <path class="st0" d="M256.65,541.98c0,.22-.02.45-.02.67-.02.85-.03,1.69-.03,2.53,0,57.83,47.05,104.87,104.87,104.87s104.87-47.05,104.87-104.87-47.05-104.87-104.87-104.87c-4.86,0-9.64.34-14.32.98,48.65-39.43,122.4-68.37,206.73-68.37,100.56,0,194.72,54.83,244.79,101.78,5.92,5.55,15.22,5.25,20.77-.67,5.55-5.92,5.25-15.22-.67-20.77-53.98-50.62-155.75-109.73-264.89-109.73-77.37,0-151.78,22.39-209.54,63.04-26.56,18.69-48.57,40.88-63.64,64.15-14.55,22.45-22.76,46.11-23.94,68.78,0,.16-.02.33-.03.49-.03.66-.06,1.31-.08,1.97ZM436.96,545.19c0,41.62-33.86,75.49-75.49,75.49s-75.49-33.86-75.49-75.49c0-1.07.03-2.15.07-3.23.02-.52.05-1.04.08-1.56.02-.4.05-.81.08-1.21,3.07-38.83,35.64-69.49,75.25-69.49,41.62,0,75.49,33.86,75.49,75.49Z"/>
  <path class="st0" d="M823.1,603.86c.05-.73.1-1.46.14-2.19.01-.21.02-.43.03-.64.03-.63.05-1.25.07-1.88,0-.24.02-.47.02-.71.02-.84.03-1.68.03-2.52,0-57.83-47.05-104.87-104.87-104.87s-104.87,47.05-104.87,104.87,47.05,104.87,104.87,104.87c2.8,0,5.58-.11,8.32-.33-3.26,2.39-6.62,4.74-10.09,7.03-53.78,35.57-123.14,55.16-195.31,55.16-101.46,0-192.75-51.86-240.11-96.26-5.92-5.55-15.22-5.25-20.77.67-5.55,5.92-5.25,15.22.67,20.77,29.14,27.33,67.59,52.36,108.27,70.48,50.22,22.38,101.34,33.73,151.94,33.73,77.87,0,152.99-21.32,211.52-60.04,54.26-35.89,86.67-82.11,90.12-127.96,0-.06,0-.12.01-.18ZM643.04,595.91c0-41.62,33.86-75.49,75.49-75.49s75.49,33.86,75.49,75.49c0,1.14-.03,2.28-.08,3.42,0,.07,0,.13,0,.2-.05,1.1-.13,2.2-.23,3.31-.01.12-.02.24-.03.36-.09.96-.21,1.92-.34,2.89-.06.41-.11.82-.17,1.23-.02.13-.04.26-.06.39-5.68,36.04-36.95,63.7-74.57,63.7-41.62,0-75.49-33.86-75.49-75.49Z"/>
</svg>