<?xml version="1.0" encoding="UTF-8"?>
<svg id="Capa_1" xmlns="http://www.w3.org/2000/svg" version="1.1" viewBox="0 0 1080 1080">
  <!-- Generator: Adobe Illustrator 29.0.0, SVG Export Plug-In . SVG Version: 2.1.0 Build 186)  -->
  <defs>
    <style>
      .st0 {
        fill: #331173;
      }
    </style>
  </defs>
  <path class="st0" d="M715.01,726.29c-59.53-7.44-90.29,8.28-124.14,30.24v-364.33c0-19.16,0-54.81-25.26-75.04-18.64-14.93-46.18-18.05-84.19-9.55l-.79.18-.77.26c-.98.34-24.39,8.44-48.14,21.63-11.89,6.6-21.8,13.37-29.74,20.26-4.39-9.03-11.2-17.24-20.18-24.13-15.59-11.96-36.1-18.55-57.76-18.55-8.11,0-14.69,6.58-14.69,14.69s6.58,14.69,14.69,14.69c29.46,0,54.34,17.53,54.34,38.28v373.42c0,8.11,6.58,14.69,14.69,14.69s14.69-6.58,14.69-14.69v-356.13c0-9.72,14.17-23.43,37.9-36.66,19.3-10.76,39.02-18.02,43-19.44,27.9-6.13,47.6-4.79,58.56,3.99,12.52,10.03,14.25,30.97,14.25,52.11v383.57c-7.85,5-16.34,10.17-25.65,15.34-47.8,26.53-50.08,27.2-88.16,38.31-4.1,1.2-8.6,2.51-13.6,3.98-7.78,2.29-12.23,10.46-9.94,18.25,1.89,6.4,7.74,10.54,14.09,10.54,1.38,0,2.77-.2,4.16-.6,4.97-1.46,9.44-2.77,13.52-3.96,40.45-11.8,44.69-13.35,94.19-40.83,7.64-4.24,14.71-8.45,21.31-12.55,3.64,4.8,8.23,9.6,13.65,14.22,9.38,8,25.44,19.02,48.7,26.08,22.31,6.77,45.79,8.26,69.79,4.43,23.35-3.73,41.5-11.11,53.95-21.93,12.11-10.53,18.64-24.48,18.39-39.29-.51-29.76-27.81-57.33-60.87-61.46ZM698.9,819.96c-46.21,7.39-77.92-11.26-89.4-19.62-5.99-4.36-10.34-8.59-13.32-12.14,37.36-24.74,60.11-39.65,115.19-32.76,20.41,2.55,34.9,19.34,35.13,32.8.26,15.05-17.53,26.9-47.59,31.71Z"/>
</svg>