<?xml version="1.0" encoding="UTF-8"?>
<svg id="Capa_1" xmlns="http://www.w3.org/2000/svg" version="1.1" viewBox="0 0 1080 1080">
  <!-- Generator: Adobe Illustrator 29.0.0, SVG Export Plug-In . SVG Version: 2.1.0 Build 186)  -->
  <defs>
    <style>
      .st0 {
        fill: #331173;
      }
    </style>
  </defs>
  <path class="st0" d="M731.29,781.42c-7.9-1.87-15.81,3.01-17.68,10.91-8.86,37.4-36.84,51.33-60.63,48.54-21.13-2.47-45.8-18.94-45.79-57.21.01-36.14,18.82-71.52,44.86-120.49,24.26-45.62,54.45-102.4,80.12-180.91,15.73-48.1,18.33-97.41,7.52-142.6-10.21-42.67-32.08-79.01-61.57-102.32-21.26-16.8-46.05-26.4-71.71-27.76-27.56-1.46-55.32,6.23-82.51,22.87-31.41,19.22-46.94,53.52-47.47,104.84-.44,41.95,8.96,89.67,18.04,135.83,7.04,35.77,14.21,72.2,15.33,101.24-17.16-29.63-51.03-49.84-89.93-49.84-56.18,0-101.89,42.15-101.89,93.97s45.71,93.97,101.89,93.97c44.91,0,83.12-26.94,96.65-64.21.44-.33.87-.69,1.29-1.08,16.39-15.52,23.12-40.2,21.19-77.66-1.56-30.22-8.42-65.11-15.7-102.06-8.8-44.7-17.89-90.91-17.49-129.85.42-40.94,11.05-66.38,33.43-80.08,42.52-26.03,85.37-25,120.66,2.88,43.6,34.46,76.07,115.72,44.35,212.73-24.88,76.09-54.41,131.62-78.14,176.24-26.98,50.74-48.29,90.82-48.3,134.28,0,23.84,7.45,44.78,21.57,60.55,12.9,14.4,30.72,23.58,50.19,25.86,3.17.37,6.34.56,9.51.56,16.72,0,33.06-5.14,46.84-14.87,17.97-12.69,30.51-32.27,36.29-56.63,1.87-7.9-3.01-15.81-10.91-17.68ZM419.87,683.05c-39.98,0-72.51-28.97-72.51-64.58s32.53-64.58,72.51-64.58,72.51,28.97,72.51,64.58-32.53,64.58-72.51,64.58Z"/>
</svg>