<?xml version="1.0" encoding="UTF-8"?>
<svg id="Capa_1" xmlns="http://www.w3.org/2000/svg" version="1.1" viewBox="0 0 1080 1080">
  <!-- Generator: Adobe Illustrator 29.0.0, SVG Export Plug-In . SVG Version: 2.1.0 Build 186)  -->
  <defs>
    <style>
      .st0 {
        fill: #331173;
      }
    </style>
  </defs>
  <path class="st0" d="M839.78,708.83H240.21c-8.11,0-14.69,6.58-14.69,14.69s6.58,14.69,14.69,14.69h599.57c8.11,0,14.69-6.58,14.69-14.69s-6.58-14.69-14.69-14.69Z"/>
  <path class="st0" d="M240.21,649.86h206.86c6.15,0,11.65-3.83,13.78-9.6,2.13-5.77.44-12.26-4.24-16.26-18.11-15.48-60.23-57.1-60.23-109.21,0-79.19,64.43-143.62,143.62-143.62s143.62,64.43,143.62,143.62c0,52.11-42.12,93.73-60.23,109.21-4.68,4-6.37,10.49-4.24,16.26,2.13,5.77,7.63,9.6,13.78,9.6h206.86c8.11,0,14.69-6.58,14.69-14.69s-6.58-14.69-14.69-14.69h-171.19c8.62-9.93,16.18-20.31,22.41-30.83,14.6-24.67,22-49.85,22-74.86,0-46.22-17.99-89.67-50.66-122.34-32.67-32.67-76.12-50.66-122.34-50.66s-89.67,17.99-122.34,50.66c-32.67,32.67-50.66,76.12-50.66,122.34,0,25,7.4,50.19,22,74.86,6.23,10.53,13.79,20.91,22.41,30.83h-171.19c-8.11,0-14.69,6.58-14.69,14.69s6.58,14.69,14.69,14.69Z"/>
</svg>