<?xml version="1.0" encoding="UTF-8"?>
<svg id="Capa_1" xmlns="http://www.w3.org/2000/svg" version="1.1" viewBox="0 0 1080 1080">
  <!-- Generator: Adobe Illustrator 29.0.0, SVG Export Plug-In . SVG Version: 2.1.0 Build 186)  -->
  <defs>
    <style>
      .st0 {
        fill: #331173;
      }
    </style>
  </defs>
  <path class="st0" d="M642.25,554.69h45.18c8.11,0,14.69-6.58,14.69-14.69s-6.58-14.69-14.69-14.69h-45.18c2.21-80.52,22.57-161.02,61.1-240.98,3.52-7.31.45-16.09-6.86-19.61-7.31-3.52-16.09-.45-19.61,6.86-40.51,84.07-62.13,169.35-64.39,253.74h-144.99c-2.25-84.39-23.88-169.67-64.39-253.74-3.52-7.31-12.31-10.38-19.61-6.86-7.31,3.52-10.38,12.3-6.86,19.61,38.53,79.96,58.89,160.46,61.1,240.98h-42.13c-8.11,0-14.69,6.58-14.69,14.69s6.58,14.69,14.69,14.69h42.13c-2.21,80.52-22.57,161.02-61.1,240.98-3.52,7.31-.45,16.09,6.86,19.61,2.06.99,4.23,1.46,6.37,1.46,5.47,0,10.72-3.06,13.25-8.32,40.51-84.07,62.13-169.35,64.39-253.74h144.99c2.25,84.39,23.88,169.67,64.39,253.74,2.53,5.25,7.78,8.32,13.25,8.32,2.14,0,4.31-.47,6.37-1.46,7.31-3.52,10.38-12.3,6.86-19.61-38.53-79.96-58.89-160.46-61.1-240.98Z"/>
</svg>