<?xml version="1.0" encoding="UTF-8"?>
<svg id="Capa_1" xmlns="http://www.w3.org/2000/svg" version="1.1" viewBox="0 0 1080 1080">
  <!-- Generator: Adobe Illustrator 29.0.0, SVG Export Plug-In . SVG Version: 2.1.0 Build 186)  -->
  <defs>
    <style>
      .st0 {
        fill: #331173;
      }
    </style>
  </defs>
  <path class="st0" d="M768.07,312.84c0-.16-.02-.31-.02-.47-.01-.35-.03-.7-.07-1.05-.02-.18-.05-.36-.08-.55-.05-.32-.1-.64-.17-.96-.04-.18-.08-.36-.13-.53-.08-.32-.17-.64-.28-.96-.05-.17-.11-.33-.17-.49-.12-.32-.25-.64-.39-.95-.07-.15-.14-.31-.21-.46-.15-.31-.32-.61-.49-.91-.09-.15-.17-.3-.26-.44-.18-.28-.38-.56-.58-.83-.11-.15-.21-.3-.33-.44-.2-.26-.42-.5-.65-.74-.11-.12-.21-.25-.32-.37-.02-.03-.05-.05-.08-.07-.03-.03-.05-.06-.08-.09-.23-.23-.48-.44-.72-.65-.12-.1-.23-.21-.34-.31-.81-.67-1.68-1.23-2.58-1.7-.11-.06-.22-.1-.33-.15-.34-.17-.69-.33-1.04-.46-.18-.07-.36-.12-.53-.19-.29-.1-.58-.2-.88-.28-.22-.06-.43-.11-.65-.16-.27-.06-.53-.12-.8-.17-.24-.04-.47-.07-.71-.1-.26-.03-.53-.06-.79-.07-.23-.02-.47-.03-.7-.03-.3,0-.59,0-.89.01-.14,0-.28,0-.42,0l-208.73,14.46c-8.09.56-14.2,7.58-13.64,15.67.56,8.09,7.58,14.19,15.67,13.64l169.55-11.75-264.3,264.1-59.46-59.51c-5.74-5.74-15.04-5.74-20.78,0-5.74,5.73-5.74,15.04,0,20.78l59.46,59.51-114.33,114.25c-5.74,5.73-5.74,15.04,0,20.78,2.87,2.87,6.63,4.31,10.39,4.31s7.52-1.43,10.38-4.3l114.33-114.25,59.46,59.51c2.87,2.87,6.63,4.31,10.39,4.31s7.52-1.43,10.38-4.3c5.74-5.74,5.74-15.04,0-20.78l-59.46-59.51,262.98-262.78-16.22,161.94c-.81,8.07,5.08,15.28,13.16,16.08.5.05.99.07,1.48.07,7.46,0,13.84-5.65,14.6-13.23l20.32-202.88s0-.01,0-.02c.05-.5.07-1.01.07-1.52Z"/>
</svg>