<?xml version="1.0" encoding="UTF-8"?>
<svg id="Capa_1" xmlns="http://www.w3.org/2000/svg" version="1.1" viewBox="0 0 1080 1080">
  <!-- Generator: Adobe Illustrator 29.0.0, SVG Export Plug-In . SVG Version: 2.1.0 Build 186)  -->
  <defs>
    <style>
      .st0 {
        fill: #331173;
      }
    </style>
  </defs>
  <path class="st0" d="M855.24,780.94l-18.1,6.67c-25.7,9.47-55,19.84-60.66,21.21-7.01.86-12.44,6.83-12.44,14.08,0,7.83,6.35,14.18,14.18,14.18,1.64,0,3.63,0,17.28-4.52-8.02,5.06-19.11,9.9-34.22,12.63-18.25,3.3-36.41-1.66-51.13-13.96-16.22-13.55-26.3-34.5-26.3-54.68v-364.85c0-26.04,0-55.55-21.48-72.93-17.07-13.81-42.96-16.42-81.48-8.2l-.85.21c-.98.28-24.38,6.87-48.1,19.01-12.81,6.55-23.31,13.49-31.51,20.77-4.77-12.67-12.05-22.78-21.7-29.94-18.03-13.38-42.7-15.52-73.32-6.34-3.56.86-25.98,6.52-48.71,17.03-12.35,5.71-22.61,11.84-30.8,18.37-11-28.06-41.07-48.26-76.34-48.26v28.36c28.92,0,52.45,19.5,52.45,43.46v406.32c0,7.83,6.35,14.18,14.18,14.18s14.18-6.35,14.18-14.18v-387.51c0-10.95,13.81-23.64,37.88-34.83,21.67-10.07,43.89-15.38,44.11-15.43l.86-.23c21.74-6.58,38.09-5.96,48.6,1.84,14.74,10.94,16.94,35.18,16.94,48.65v387.51c0,7.83,6.35,14.18,14.18,14.18s14.18-6.35,14.18-14.18v-387.51c0-11.19,13.63-24.62,37.39-36.84,19.66-10.11,39.78-16.14,42.78-17.01,28.02-5.92,47.81-5.02,57.25,2.61,10.96,8.87,10.96,29.28,10.96,50.88v364.85c0,28.78,13.64,57.36,36.47,76.44,16.95,14.16,37.14,21.57,58.13,21.57,5.37,0,10.8-.49,16.23-1.47,33.63-6.08,53.09-21.14,63.5-32.71l1.02,20.53c.38,7.58,6.64,13.48,14.15,13.48.24,0,.48,0,.72-.02,7.82-.39,13.85-7.05,13.46-14.87l-3.92-78.57Z"/>
</svg>