<?xml version="1.0" encoding="UTF-8"?>
<svg id="Capa_1" xmlns="http://www.w3.org/2000/svg" version="1.1" viewBox="0 0 1080 1080">
  <!-- Generator: Adobe Illustrator 29.0.0, SVG Export Plug-In . SVG Version: 2.1.0 Build 186)  -->
  <defs>
    <style>
      .st0 {
        fill: #331173;
      }
    </style>
  </defs>
  <path class="st0" d="M747.7,304.68c-50.14,0-77.17,35.39-103.31,69.61-27.2,35.61-52.88,69.25-104.83,69.25s-77.63-33.64-104.83-69.25c-26.14-34.22-53.16-69.61-103.31-69.61-8.11,0-14.69,6.58-14.69,14.69s6.58,14.69,14.69,14.69c35.61,0,56.16,26.91,79.95,58.06,17.42,22.82,36.25,47.46,63,63.46-26.64,9.76-51.06,25.28-71.72,45.94-37.39,37.39-57.98,87.1-57.98,139.97s20.59,102.59,57.98,139.97c37.39,37.39,87.1,57.98,139.97,57.98s102.59-20.59,139.97-57.98c37.39-37.39,57.98-87.1,57.98-139.97s-20.59-102.59-57.98-139.97c-21.66-21.66-47.47-37.67-75.62-47.32,25.56-16.01,43.81-39.9,60.74-62.07,23.79-31.16,44.34-58.06,79.95-58.06,8.11,0,14.69-6.58,14.69-14.69s-6.58-14.69-14.69-14.69ZM711.22,641.5c0,92.95-75.62,168.57-168.57,168.57s-168.57-75.62-168.57-168.57,75.62-168.57,168.57-168.57,168.57,75.62,168.57,168.57Z"/>
</svg>