<?xml version="1.0" encoding="UTF-8"?>
<svg id="Capa_1" xmlns="http://www.w3.org/2000/svg" version="1.1" viewBox="0 0 1080 1080">
  <!-- Generator: Adobe Illustrator 29.0.0, SVG Export Plug-In . SVG Version: 2.1.0 Build 186)  -->
  <defs>
    <style>
      .st0 {
        fill: #331173;
      }
    </style>
  </defs>
  <path class="st0" d="M805.53,669.64c11.85-20.51,17.99-39.75,18.25-57.17.38-25.9-12.94-46.36-36.56-56.14-22.14-9.17-43.35-7.91-61.36,3.64-11.27,7.24-20.46,17.92-27.91,30.29v-235.64c0-26.99,0-63.96-25.74-83.25-18.31-13.72-44.91-15.2-81.34-4.53l-.53.15-.51.19c-.96.36-23.72,9.04-46.8,23.16-10.65,6.51-19.65,13.14-26.99,19.86-3.79-15.25-10.76-28.63-23.43-38.09-18.54-13.86-44.52-15.58-79.41-5.26l-1,.34c-.96.36-23.72,9.04-46.8,23.16-11.27,6.9-20.69,13.92-28.26,21.05-11.83-26.39-41.29-45.13-75.68-45.13v28.51c29.07,0,52.72,19,52.72,42.34v398.96c0,7.87,6.38,14.25,14.25,14.25s14.25-6.38,14.25-14.25v-380.49c0-11.33,13.58-26.17,37.27-40.72,19.13-11.75,38.67-19.58,41.88-20.83,25.03-7.32,43.1-7.01,53.72.92,14.33,10.71,16.26,36.66,16.26,60.63v380.49c0,7.87,6.38,14.25,14.25,14.25s14.25-6.38,14.25-14.25v-380.49c0-11.33,13.58-26.17,37.27-40.72,19.1-11.73,38.61-19.55,41.87-20.83,18.39-5.33,42.75-9.53,55.67.15,14.33,10.74,14.33,38.29,14.32,60.43v331.04c-.42,4.25-.67,8.02-.79,11.16-.07,1.82.22,3.57.79,5.19v15.93c0,14.25,2.45,27.33,7.18,38.83-31.51,20.82-72.42,42.87-124.6,62.7-7.36,2.8-11.06,11.03-8.26,18.39,2.16,5.69,7.58,9.19,13.33,9.19,1.68,0,3.39-.3,5.06-.93,48.21-18.32,92.04-40.44,129.84-65.34.06.07.12.14.18.2,15.88,16.72,39.09,25.56,67.12,25.56,7.87,0,14.25-6.38,14.25-14.25s-6.38-14.25-14.25-14.25c-20.6,0-34.43-5.61-43.65-13.79,14.35-10.65,27.63-21.74,39.72-33.18,21.49-20.34,38.37-41.01,50.16-61.42ZM735.77,710.35c-9.32,8.82-20.88,18.78-34.97,29.38-2.19-7.69-2.85-15.37-2.85-21.8v-30.84c3.29-31.29,16.21-85.74,43.3-103.13,10.08-6.47,21.54-6.89,35.05-1.29,12.98,5.38,19.18,14.99,18.97,29.39-.39,26.67-22.64,63.42-59.5,98.31Z"/>
</svg>