<?xml version="1.0" encoding="UTF-8"?>
<svg id="Capa_1" xmlns="http://www.w3.org/2000/svg" version="1.1" viewBox="0 0 1080 1080">
  <!-- Generator: Adobe Illustrator 29.0.0, SVG Export Plug-In . SVG Version: 2.1.0 Build 186)  -->
  <path d="M388.9,805.59l14.93-42.59-.93-1.9c-1.3,4.16-3.71,9.16-6.98,12.01-.79.69-2.04,2.59-3.01.99,5.56-5.02,8.97-12.11,9.99-19.5-9.76,7.25-20.1,17.04-32.99,17l2.99,4.99c-4.81-.59-3.31-6.6-9.29-4.81-8.01,2.4,3.27,15.83,9.23,15.38l8.05,1.43c-6.82.8-16.15-1.28-19.84-7.64-1.2-2.08-2.29-9.04-3.67-9.34-3.13-.7-4.15,5.79-3.5,7.99-1.54.27-1.59-3.4-1.46-4.15.48-2.82,3.26-5.64,5.54-7.28,6.58-4.75,15.38-8.52,22.26-12.74,10.99-6.76,22.32-11.5,21.67-26.81-2.04,1.02-1.44,4.79-2.56,6.92-3.09,5.87-18.76,12.07-24.93,12.07h-14.5l17.23-2.27c15.29-3.41,26.45-8.61,19.95-26.4-5.8-15.86-18.2-21.61-16.17-41.83,1.02-10.18,10.16-15.52,18.98-18.55-2.89-7.26.52-11.87,5.01-17.16,1.18-1.39,6.25-4,.47-3.83-8.77.27-4.57,13.71-13.46,14.04.6-1.77,2.5-1.48,3.87-3.61.9-1.39,3.27-8.37,3.13-9.87h-7.02c2.16-1.61,6.75-.58,8.77-1.75.29-.17,4.04-5.06,4.1-5.4.26-1.37-1.89-3-1.68-5.6.25-3.15,3.6-7.26,4.54-10.54,4.15-14.43-2.11-20.81-2.74-32.75-.19-3.56,1.27-6.39.83-9.69-.88-6.65-7.19-12.34-7.74-17.39-.62-5.68,2.58-10.87,2.93-16.38l-4.5,3.99-.98-2.99c-5.68,4.43-3.28,10.24-1.52,15.99-3.59-2.32-3.63-9.55-2.54-13.06,1.56-5.04,8.85-5.26,7.55-11.94-15.34,3.81-18.62,19.49-9,30.98-11.5-4.06-10.05-15.24-6.18-24.67,7.35-17.89,18.19-23.42,29.2-36.8,7.01-8.51,2.38-11.9,3.11-21.9.6-8.17,6.19-17.88,6.55-23.25.17-2.59-1.44-6.36-.68-9.37-2.59-.18-2.88,2.48-5.52,2.97-4.72.89-14.43.41-17.48-3.97,4.25,1.2,7.76,3.19,12.45,3.02,13.6-.5,8.18-12.11,9.99-21.09,2.31-11.46,10.99-24.35,12.57-35.44.09-.6.28-1.64-.5-1.49l-7.01,6.99c-.74.16-.68-1.04-.49-1.48,1-2.24,7.57-6.87,9.4-10.61,1.37-2.81,1.66-6.79,3.11-9.89,4.11-8.81,9.16-14.42,13.65-22.35,7.57-13.37,11.76-27.39,24.82-37.18-1.63-1.48-4.02.77-5.32,1.68-12.09,8.52-14.84,22.93-22.18,34.82l6.33-16.67c2.71-13.32,15.51-17.64,22.2-24.8,2.02-2.16,2.17-5.42,3.56-7.44,2.32-3.36,15.96-17.76,19.09-19.91,13.13-9.03,25.95-5.12,39.83-5.09,2.37,0,4.58-1.15,6.96-1.12,7.3.08,20.18-.92,26.06,4.02,3.98,3.35,1.51,5.64,2.7,7.81,2.74,5.02,18.28,10.52,23.81,13.68,6.36,3.64,16.88,12.23,20.4,18.6,1.73,3.12,1.06,5.98,2.14,8.86,1.39,3.72,6.54,7.3,10.42,5.54,2.87-1.3,2.02-4.45,4.01-5.48l-2,7.49,3.01-.48-.99,2.99c7.19,1.31,24.48.25,29.52,4.99,8.33,7.83-2.33,16.35-1.47,19.38,8.33,5.46,15.78,3.18,11.94,16.63,10.17-1.35,6.45,7.34,8.51,12,1.25,2.82,7.59,4.74,10.05,6.95,3.99,3.57,5.4,9.2,4.22,14.35-2.31,10.11-34.14,25.7-41.78,36.21-7.59,10.44-5.83,27.7-8.3,39.7-4.17,20.22-14.78,48.15-12.7,68.29.84,8.15,4.18,5.69,9.49,9.51,4.46,3.21,7.88,9,8.51,14.49.61,5.28-1.28,11.56-.82,15.73.69,6.36,11.19,24.92,14.99,31.1,12.85,20.87,29.44,34.47,38.6,58.4,11.49,30.05,18.26,52.97,19.28,85.72.34,10.8.28,21.87-1.04,32.54h-337ZM573.9,285.58c-4.67-8.98-21.21-8.25-30-6.98,2.58,4.26,8.72.97,12.5.91,8.67-.15,9.97,5.28,17.5,6.07ZM429.89,439.58c.08-6.67,4.88-12.25,4-18.99l-4.77,9.72c-.4,1.91-.27,3.85-.23,5.78.03,1.19-.72,3.74,1,3.49ZM423.9,461.59c-2.84-.49-1.64.67-2.25,2.2-1.97,4.92-5.56,21.54-3.26,25.82.76,1.42,1.15.95,1.99-.04,1.11-1.31,3.53-8.06,3.53-9.48v-18.5ZM427.89,509.59l1-12.99-5.86,4.63c-.21,1.11,3.13,7.79,4.86,8.37ZM404.9,521.58c10.13-1.13,15.46-10.45,15.99-19.99-2.61,1.96-2.73,6.21-4.53,8.95-2.87,4.36-8.88,6.28-11.46,11.03ZM406.9,553.59v16l4.08-10.52-.99-4.9-3.09-.59ZM426.89,555.59c-1.62-1.47-5.36,5.96-5.99,6.99l6.58-.92-.59-6.06ZM646.89,585.59c.76-4.92-2-8.52-5.98-11-.38,4.21,2.62,8.61,5.98,11ZM414.91,632.59c4.16-3.18,8.26-6.12,6.98-12-4.52,2.54-6.37,7.04-6.98,12ZM431.9,659.59c-13.71,4.75-10.29,14.39-10.01,25.99l-1.98-10.5c-.22-4.95-.52-8.64,2.98-12.48l-9.01,4.75c-2.84,5.07,6.16,17.38,8.51,22.22,6.29-8.75,6.37-20.05,9.5-29.97ZM416.92,694.58c1.33.96,4.68-2.44,3.84-4.24l-10.85-21.74c-2.72,9.15,4.64,14.14,6.98,20.51,1.03,2.8-2.25-.2-2,.99l2.03,4.48ZM415.9,696.58c1.02-1.46-5.89-11.07-7.17-13.32s-4.31-11.11-6.3-10.66c-.53.12-4.08,3.85-4.34,4.7-2.59,8.64,9.46,20.3,12.31,27.29,1.99,4.9,3.48,12.72,3.52,17.99,1.75.23.94-2.27.99-3.49.16-3.96,1.52-12.52-2.5-13.47l-.49-1.52,2.99-3.51-5.99-1.51,6.99-2.52Z"/>
</svg>